Coordinates
version=1
nRows=15
nColumns=46
inDegrees=yes

Units are S.I. units (second, meters, Newtons, ...)
Angles are in degrees.

endheader
time	pelvis_tilt	pelvis_list	pelvis_rotation	pelvis_tx	pelvis_ty	pelvis_tz	bb_angle	bb_tx	bb_ty	bb_tz	hip_flexion_r	hip_adduction_r	hip_rotation_r	knee_angle_r	knee_angle_r_beta	ankle_angle_r	subtalar_angle_r	mtp_angle_r	crank_angle_r	hip_flexion_l	hip_adduction_l	hip_rotation_l	knee_angle_l	knee_angle_l_beta	ankle_angle_l	subtalar_angle_l	mtp_angle_l	crank_angle_l	lumbar_extension	lumbar_bending	lumbar_rotation	arm_flex_r	arm_add_r	arm_rot_r	elbow_flex_r	pro_sup_r	wrist_flex_r	wrist_dev_r	arm_flex_l	arm_add_l	arm_rot_l	elbow_flex_l	pro_sup_l	wrist_flex_l	wrist_dev_l
      5.00000000	    -13.25788734	      3.19278193	     -1.98277990	      0.20437081	      1.06746744	     -0.31493581	      0.00000000	      0.50000000	      0.00000000	      0.25000000	     42.24407248	    -10.12822336	     -3.76264778	     47.49343591	      0.82891683	    -22.18766925	     -2.84351670	      0.00000000	      0.00000000	     89.00708783	     -4.32568532	      3.38456959	    108.24363690	      1.88920786	      3.39050620	    -12.11531253	      0.00000000	      0.00000000	    -69.88963547	    -12.49018174	     -4.79084401	     84.28493587	    -23.88799393	     27.34311094	     60.71716666	     43.29822797	      0.00000000	      0.00000000	     89.23615057	    -15.43118639	     33.87116685	     75.33528808	     44.22088973	      0.00000000	      0.00000000
      5.00500000	    -13.70344760	      2.73947243	     -2.03546876	      0.20360100	      1.06745642	     -0.31380528	      0.00000000	      0.50000000	      0.00000000	      0.25000000	     43.36741004	     -9.43521833	     -3.23568261	     49.61582054	      0.86595943	    -22.34514952	     -4.08348029	      0.00000000	      0.00000000	     88.72361144	     -4.71511062	      3.66356216	    106.35734762	      1.85628590	      4.69324626	    -11.63443645	      0.00000000	      0.00000000	    -69.57325744	    -12.77942488	     -4.17323728	     84.15782242	    -24.94392575	     27.88986205	     61.10410364	     43.56122104	      0.00000000	      0.00000000	     89.25148281	    -14.46533098	     33.30069609	     75.48156344	     43.92185915	      0.00000000	      0.00000000
      5.01000000	    -13.91518340	      2.83074703	     -1.92317567	      0.20315177	      1.06812569	     -0.31348487	      0.00000000	      0.50000000	      0.00000000	      0.25000000	     44.38072713	     -9.48434742	     -2.67589177	     51.89416480	      0.90572404	    -22.22726675	     -4.87831810	      0.00000000	      0.00000000	     87.86767302	     -4.75004425	      3.21366795	    104.18081771	      1.81829829	      5.80511967	    -11.59701962	      0.00000000	      0.00000000	    -69.63190527	    -13.06065519	     -4.33751900	     84.11620634	    -25.36639002	     27.89493920	     61.04803579	     43.57159525	      0.00000000	      0.00000000	     89.27838104	    -13.94075961	     33.10068216	     75.76986619	     43.85319609	      0.00000000	      0.00000000
      5.01500000	    -14.20850763	      2.49393852	     -1.80066062	      0.20276693	      1.06853811	     -0.31245062	      0.00000000	      0.50000000	      0.00000000	      0.25000000	     45.36004965	     -8.99729273	     -2.20050009	     54.12118732	      0.94459291	    -22.04808718	     -5.72128801	      0.00000000	      0.00000000	     87.06256673	     -4.95449446	      3.23409815	    101.90369491	      1.77855500	      6.86373685	    -11.49959382	      0.00000000	      0.00000000	    -69.49416920	    -13.17200532	     -4.10803213	     84.01529081	    -25.70227651	     27.86752252	     61.09259328	     43.59204091	      0.00000000	      0.00000000	     89.30039675	    -13.49073600	     32.91446009	     75.95829491	     43.79520451	      0.00000000	      0.00000000
      5.02000000	    -14.28165820	      2.48033858	     -1.69205758	      0.20251491	      1.06919492	     -0.31208390	      0.00000000	      0.50000000	      0.00000000	      0.25000000	     46.25870991	     -8.87598136	     -1.56853451	     56.48663813	      0.98587782	    -21.77155676	     -6.46297539	      0.00000000	      0.00000000	     85.82947079	     -5.07378023	      2.79909357	     99.46929344	      1.73606668	      7.80794388	    -11.44363940	      0.00000000	      0.00000000	    -69.62077084	    -13.32900031	     -4.06672553	     83.89486658	    -26.12745829	     27.82224066	     61.20724969	     43.62268832	      0.00000000	      0.00000000	     89.30971283	    -12.94450221	     32.76221410	     76.07237128	     43.73516806	      0.00000000	      0.00000000
      5.02500000	    -14.53207171	      2.32929962	     -1.53016352	      0.20222701	      1.06954082	     -0.31098424	      0.00000000	      0.50000000	      0.00000000	      0.25000000	     47.32173422	     -8.51020290	     -0.91071100	     58.83969050	      1.02694633	    -21.41887819	     -7.20337680	      0.00000000	      0.00000000	     84.74822218	     -5.24274356	      2.58746122	     96.86384012	      1.69059294	      8.44385499	    -11.22946217	      0.00000000	      0.00000000	    -69.52386616	    -13.53383241	     -3.95004783	     83.61814397	    -26.65844349	     27.75985000	     61.44653449	     43.67981660	      0.00000000	      0.00000000	     89.32735839	    -12.23982505	     32.49012302	     76.12238438	     43.63332126	      0.00000000	      0.00000000
      5.03000000	    -14.55075622	      2.14517214	     -1.42428846	      0.20204561	      1.06988818	     -0.31039878	      0.00000000	      0.50000000	      0.00000000	      0.25000000	     48.22599202	     -8.18255365	     -0.39145069	     61.29536109	      1.06980587	    -21.02999392	     -7.79760067	      0.00000000	      0.00000000	     83.43143709	     -5.34700475	      2.39049038	     94.29216328	      1.64570871	      8.86648742	    -11.27099390	      0.00000000	      0.00000000	    -69.62468594	    -13.64837818	     -3.76211433	     83.46899171	    -27.07444052	     27.67833148	     61.68802228	     43.73042470	      0.00000000	      0.00000000	     89.33347752	    -11.62811869	     32.28500624	     76.11670248	     43.54597724	      0.00000000	      0.00000000
      5.03500000	    -14.61409532	      2.20840409	     -1.27574186	      0.20196292	      1.07021754	     -0.30980003	      0.00000000	      0.50000000	      0.00000000	      0.25000000	     49.23618285	     -8.03789243	      0.32732754	     63.74152703	      1.11249952	    -20.66686532	     -8.32666377	      0.00000000	      0.00000000	     81.97764270	     -5.36764850	      1.90321051	     91.48013652	      1.59662958	      9.06881386	    -11.30892550	      0.00000000	      0.00000000	    -69.70192616	    -13.88066359	     -3.71663817	     83.08347375	    -27.74473665	     27.55130594	     62.16565353	     43.83251999	      0.00000000	      0.00000000	     89.34159963	    -10.71474271	     31.87449363	     75.94130975	     43.36235239	      0.00000000	      0.00000000
      5.04000000	    -14.47217798	      1.78053211	     -1.14253618	      0.20182917	      1.07020917	     -0.30946109	      0.00000000	      0.50000000	      0.00000000	      0.25000000	     50.01946900	     -7.50790239	      0.71322838	     66.26553608	      1.15655179	    -20.21773509	     -8.70171002	      0.00000000	      0.00000000	     80.55421024	     -5.51126052	      1.97488408	     88.92890687	      1.55210223	      8.95769495	    -11.16810139	      0.00000000	      0.00000000	    -69.82089806	    -13.71557233	     -3.35328655	     83.00886771	    -27.89431017	     27.50872892	     62.34123840	     43.86926636	      0.00000000	      0.00000000	     89.31195329	    -10.37018036	     31.73754454	     75.90913053	     43.30221112	      0.00000000	      0.00000000
      5.04500000	    -14.25748856	      2.03794712	     -0.73630530	      0.20183994	      1.07064530	     -0.30940560	      0.00000000	      0.50000000	      0.00000000	      0.25000000	     50.87225529	     -7.79010316	      1.28651874	     68.90083874	      1.20254649	    -19.55418465	     -9.08068162	      0.00000000	      0.00000000	     78.74940623	     -5.09808476	      1.45517629	     86.04460626	      1.50176168	      8.72802875	    -11.14553318	      0.00000000	      0.00000000	    -70.24164640	    -13.77598720	     -3.61099572	     82.73051877	    -28.53652066	     27.34716288	     62.74126278	     43.95086719	      0.00000000	      0.00000000	     89.34279455	     -9.44376788	     31.37038219	     75.66557986	     43.12239197	      0.00000000	      0.00000000
      5.05000000	    -14.10538426	      1.88287875	     -0.56451164	      0.20165437	      1.07038902	     -0.30905384	      0.00000000	      0.50000000	      0.00000000	      0.25000000	     51.81172343	     -7.47137197	      1.81306627	     71.49682645	      1.24785503	    -19.07820233	     -9.42173105	      0.00000000	      0.00000000	     77.27146117	     -5.16464665	      1.25608500	     83.44154413	      1.45632968	      8.16584324	    -10.74676348	      0.00000000	      0.00000000	    -70.39944525	    -13.74665820	     -3.49283431	     82.60445199	    -28.81465388	     27.25972250	     63.02884118	     44.01032161	      0.00000000	      0.00000000	     89.33662372	     -8.92760344	     31.09698959	     75.50064153	     42.99756019	      0.00000000	      0.00000000
      5.05500000	    -14.04070844	      1.64425918	     -0.42184424	      0.20156010	      1.06951238	     -0.30910677	      0.00000000	      0.50000000	      0.00000000	      0.25000000	     52.94103657	     -7.16125268	      2.15928321	     74.16575543	      1.29443662	    -18.64040988	     -9.74332043	      0.00000000	      0.00000000	     75.98390182	     -5.22024405	      1.17957842	     81.00997017	      1.41389071	      7.47738105	    -10.49546498	      0.00000000	      0.00000000	    -70.38674787	    -13.68333674	     -3.33794481	     82.39182624	    -29.10044263	     27.16281491	     63.27710933	     44.06371233	      0.00000000	      0.00000000	     89.31754876	     -8.40313577	     30.82633625	     75.35183236	     42.87430592	      0.00000000	      0.00000000
      5.06000000	    -13.93856847	      1.54959384	     -0.22823415	      0.20146605	      1.06870251	     -0.30912693	      0.00000000	      0.50000000	      0.00000000	      0.25000000	     54.08421752	     -6.98134851	      2.58794639	     76.83212014	      1.34097347	    -18.25643682	     -9.92528754	      0.00000000	      0.00000000	     74.61328840	     -5.15416767	      0.98901172	     78.53578657	      1.37070806	      6.48968145	    -10.50240218	      0.00000000	      0.00000000	    -70.41873616	    -13.65477093	     -3.17740940	     82.01782435	    -29.60261558	     27.02334208	     63.71079746	     44.16010331	      0.00000000	      0.00000000	     89.30032735	     -7.79687475	     30.51972694	     75.03027459	     42.67270743	      0.00000000	      0.00000000
      5.06500000	    -13.82008537	      1.23236413	     -0.13906099	      0.20118231	      1.06749823	     -0.30874113	      0.00000000	      0.50000000	      0.00000000	      0.25000000	     55.25252759	     -6.47365619	      2.93485232	     79.49449942	      1.38744075	    -17.82841369	    -10.21672577	      0.00000000	      0.00000000	     73.36788904	     -5.37702630	      0.95651308	     76.25619448	      1.33092167	      5.42576264	    -10.10411976	      0.00000000	      0.00000000	    -70.35154271	    -13.61265948	     -2.90742117	     81.87951267	    -29.89139817	     26.93774350	     63.92501187	     44.20901979	      0.00000000	      0.00000000	     89.29233816	     -7.40763716	     30.35686607	     74.89020476	     42.55945779	      0.00000000	      0.00000000
      5.07000000	    -13.71914574	      1.06021318	     -0.00514184	      0.20080387	      1.06611921	     -0.30853335	      0.00000000	      0.50000000	      0.00000000	      0.25000000	     56.55172209	     -6.12742877	      3.38358243	     82.17728356	      1.43426417	    -17.49753968	    -10.21173004	      0.00000000	      0.00000000	     72.16511236	     -5.42052080	      0.86647063	     74.05890150	      1.29257167	      4.07889625	     -9.99722162	      0.00000000	      0.00000000	    -70.30220215	    -13.60036071	     -2.70928170	     81.53827463	    -30.39390514	     26.87601307	     64.30214384	     44.31077431	      0.00000000	      0.00000000	     89.27657875	     -6.74345590	     30.07922698	     74.52960501	     42.32524479	      0.00000000	      0.00000000
